<?xml version="1.0" standalone="no"?>
<!DOCTYPE svg PUBLIC "-//W3C//DTD SVG 20010904//EN"
 "http://www.w3.org/TR/2001/REC-SVG-20010904/DTD/svg10.dtd">
<svg version="1.0" xmlns="http://www.w3.org/2000/svg"
 width="162.000000pt" height="162.000000pt" viewBox="0 0 162.000000 162.000000"
 preserveAspectRatio="xMidYMid meet">

<g transform="translate(0.000000,162.000000) scale(0.100000,-0.100000)"
fill="#000000" stroke="none">
<path d="M780 1070 l0 -100 30 0 30 0 0 100 0 100 -30 0 -30 0 0 -100z"/>
<path d="M625 990 c-18 -20 -18 -21 12 -52 53 -52 99 -11 47 43 -33 35 -36 35
-59 9z"/>
<path d="M936 981 c-52 -54 -6 -95 47 -43 30 31 30 32 12 52 -23 26 -26 26
-59 -9z"/>
<path d="M775 901 c-64 -27 -81 -110 -32 -158 60 -61 162 -19 162 67 0 66 -72
116 -130 91z"/>
<path d="M450 810 l0 -30 100 0 100 0 0 30 0 30 -100 0 -100 0 0 -30z"/>
<path d="M970 810 l0 -30 100 0 100 0 0 30 0 30 -100 0 -100 0 0 -30z"/>
<path d="M635 680 l-29 -30 22 -22 22 -23 32 33 c27 26 31 35 22 50 -18 27
-37 25 -69 -8z"/>
<path d="M922 698 c-18 -18 -15 -32 18 -63 l30 -29 22 22 22 22 -29 30 c-31
33 -45 36 -63 18z"/>
<path d="M780 550 l0 -100 30 0 30 0 0 100 0 100 -30 0 -30 0 0 -100z"/>
</g>
</svg>
